<svg xmlns="http://www.w3.org/2000/svg" preserveAspectRatio="xMidYMid" viewBox="0 0 256 256"><rect width="256" height="256" fill="#7e13f8"/><path d="m62.526 38.78c-12.781 0-22.239 11.187-21.816 23.319 0.40688 11.655-0.12162 26.751-3.9218 39.062-3.8115 12.346-10.258 20.167-20.788 21.172v11.336c10.53 1.0045 16.977 8.8252 20.788 21.172 3.8001 12.31 4.3286 27.405 3.9218 39.061-0.4235 12.13 9.0344 23.319 21.817 23.319h130.96c12.782 0 22.237-11.187 21.814-23.319-0.406-11.655 0.12163-26.75 3.9218-39.061 3.8141-12.346 10.244-20.169 20.773-21.172v-11.336c-10.53-1.0045-16.959-8.8252-20.772-21.172-3.801-12.309-4.3286-27.406-3.9226-39.062 0.4235-12.13-9.0318-23.319-21.814-23.319h-130.97zm105.34 109.84c0 16.705-12.46 26.836-33.138 26.836h-35.201a3.7966 3.7966 0 0 1-3.7958-3.7966v-87.322a3.7966 3.7966 0 0 1 3.7966-3.7975h34.999c17.242 0 28.557 9.3406 28.557 23.68 0 10.065-7.6125 19.076-17.31 20.654v0.52587c13.203 1.4481 22.092 10.591 22.092 23.22zm-36.978-56.044h-20.07v28.35h16.905c13.067 0 20.274-5.2622 20.274-14.668 0-8.8139-6.1967-13.682-17.108-13.682zm-20.07 39.599v31.242h20.809c13.604 0 20.813-5.4591 20.813-15.719 0-10.262-7.4086-15.524-21.688-15.524h-19.934z" fill="#fff"/></svg>
