<svg xmlns="http://www.w3.org/2000/svg" viewBox="0 0 115 115"><path d="m8.2619 28.17c-10.439 15.156-8.5922 35.818 0.0265 51.352 8.7653 16.174 24.722 28.571 42.793 32.324 16.353 2.9091 34.516-0.29608 47.031-11.784 5.5676-5.0184 10.178-11.196 13.052-18.139-10.175 13.802-28.644 18.645-45.044 16.472-28.079-3.3297-52.828-27.663-54.765-56.214-0.57569-8.2487 0.92245-16.692 4.689-24.081-2.594 3.357-5.1879 6.714-7.7819 10.071zm30.999-12.316c-8.9375 13.082-6.0715 31.157 3.2713 43.229 8.3283 10.687 21.371 18.443 35.223 17.955 13.229 0.44657 26.764-6.0663 33.346-17.797 1.4002-2.2436 4.3495-8.6981 0.85292-3.4797-9.6247 11.516-26.744 14.037-40.359 8.9528-18.504-6.3908-33.06-25.648-30.369-45.653-0.12953-3.2908 3.5301-10.932 3.4299-10.915-1.7984 2.569-3.5969 5.1379-5.3953 7.7069zm26.066-9.2015c-6.7739 9.7731-3.3575 23.602 5.1472 31.178 8.6714 8.6106 23.941 10.995 33.772 3.0183 2.5252-1.5719 6.3188-7.8529 6.1969-8.1486-5.6353 7.9336-16.85 8.011-25.188 4.9781-13.673-4.7001-24.06-21.733-16.741-35.497" fill="#0868ac"/></svg>