<svg xmlns="http://www.w3.org/2000/svg" viewBox="0 0 48 48"><path d="M22 2.988l-.598.121a42.152 42.152 0 00-4.75 1.28c-3.392 1.155-4.911 2.368-4.642 3.709.09.46.425.843 1.021 1.177l.489-.873c-.312-.174-.5-.353-.53-.502-.086-.428.402-.91 1.25-1.396.498.717 1.997 2.81 3.36 3.976a.504.504 0 00.324.12.527.527 0 00.178-.032c.085-.032 1.941-.754 3.601-2.363.307 1.041.745 2.118 1.381 3.072l.832-.554C22.026 7.888 22 3.642 22 3.6v-.612zm-.979 1.223c.034.578.126 1.52.34 2.592-2.932-.495-4.6-.83-5.53-1.041 1.464-.592 3.314-1.145 5.19-1.551zm-5.375 2.535c.957.216 2.535.53 5.118.97a11.186 11.186 0 01-2.744 1.8c-.832-.773-1.742-1.92-2.373-2.77zm12.537 15.127l-.966.254c.28 1.076.48 2.122.615 3.139a228.08 228.08 0 01-4.846-2.131.501.501 0 00-.705.404 32.189 32.189 0 01-.976 5.272c-1.831-1.64-2.231-3.58-2.258-3.721l-.983.18c.008.041.514 2.595 2.946 4.568-2.057 1.026-4.055 1.851-5.953 2.461 1.374-2.122 2.564-4.489 2.935-6.717l-.984-.164c-.374 2.24-1.678 4.68-3.135 6.838-1.188-2.142-.109-4.175-.045-4.291l-.875-.486a5.892 5.892 0 00-.307.765l-.318-.523c-4.722 2.865-6.872 5.77-6.215 8.4 1.077 4.306 10.195 6.88 18.387 6.88h.252l.15-.202c.064-.087 6.43-8.834 3.282-20.926zm-4.982 2.455a207.1 207.1 0 004.15 1.824 62.45 62.45 0 01-5.062 3.028 33.95 33.95 0 00.912-4.852zM28 26.901a25.22 25.22 0 01-.063 4.191c-2.13-.047-3.762-.506-5.004-1.156A62.494 62.494 0 0028 26.9zm-15.514 1.9c-.237 1.035-.314 2.547.576 4.068-2.032.508-3.926.741-5.629.682.746-1.505 2.461-3.127 5.053-4.75zm9.445 1.69c1.173.728 2.684 1.305 4.639 1.519-2.593 1.452-4.831 2.562-6.772 3.426a27.19 27.19 0 002.106-4.93 62.494 62.494 0 00.027-.016zm-1.312.648a26.116 26.116 0 01-2.143 4.566 18.693 18.693 0 01-2.219-1.134 7.743 7.743 0 01-1.49-1.14c1.87-.562 3.83-1.33 5.852-2.292zm7.142 1.34a25.7 25.7 0 01-1.31 5.037.5.5 0 00-.051-.014c-.038 0-2.833-.021-6.21-1.144 2.145-.956 4.657-2.22 7.571-3.88zm-13.857 1.496c.474.503 1.07.992 1.838 1.453a19.896 19.896 0 001.828.945c-3.75 1.477-6.047 1.848-7.232 1.916a47.965 47.965 0 003.566-4.314zm-1.273.017a46.633 46.633 0 01-3.684 4.303c-.977-.718-1.639-1.526-1.861-2.416a2.943 2.943 0 01-.004-1.35c1.687.094 3.55-.088 5.549-.537zm6.277 2.975a23.733 23.733 0 005.582 1.39c-2.907 1.202-6.41 1.845-8.408 2.14.764-.758 1.786-1.916 2.826-3.53zm-1.672.611c-1.414 1.923-2.57 2.873-2.865 3.104-1.406-.39-2.682-.863-3.773-1.406 1.265-.093 3.393-.476 6.638-1.698zm8.701 1.223c-.718 1.653-1.41 2.766-1.699 3.197a40.817 40.817 0 01-6.998-.664c2.385-.397 5.909-1.167 8.698-2.533z" fill="#cfd8dc"/><path d="M12.141 7.12c-.15.32-.2.65-.13.98.022.116.064.226.118.332.342.76.893 1.39 1.541 2.048 1.49 1.48 3.381 3.33 3.381 8.02 0 3.96-3.47 7.27-5.97 9.69-.45.43-.87.83-1.24 1.21h.009a15.928 15.928 0 00-1.9 1.69c2.05-1.09 4.58-2.33 5.62-2.93.02-.01.03-.01.04-.02 1.77-1.02 3.71-1.93 5.58-2.68 5.17-2.07 14.21-4.59 22.97-5.56.17-.02.776-.105.776-.105s-.326-.514-.416-.664c-.084-.135-1.795-2.85-6.445-5.287a.51.51 0 00-.182-.096 27.747 27.747 0 00-2.713-1.219c-2.95-1.13-7.32-1.758-11.18-2.318-3.19-.46-7.02-1.012-8.44-1.762l-.009-.01c-.04-.02-.15-.08-.3-.18-.31-.22-.78-.6-1.11-1.14zm2.314 2.726c1.328.403 3.182.728 5.512 1.078a18.268 18.268 0 00-2.945 2.342c-.734-1.572-1.73-2.585-2.566-3.42zm6.887 1.44c.301.5.799 1.629.647 3.472a29.091 29.091 0 00-3.94-1.086c.713-.658 1.917-1.669 3.293-2.387zm1.121.005c1.52.22 3.091.453 4.615.727a36.23 36.23 0 00-4.072 2.396c.05-1.41-.24-2.446-.543-3.123zm6.59 1.113c1.396.302 2.69.65 3.768 1.067.496.19.96.387 1.408.588a44.16 44.16 0 00-6.635 2.207c.619-1.257 1.14-2.568 1.46-3.862zm-1.117.303c-.387 1.327-.993 2.675-1.68 3.951a26.523 26.523 0 00-2.795-1.338c1.346-.917 2.863-1.838 4.475-2.613zm-10.406 1.89c1.05.188 2.37.506 3.818.993a44.801 44.801 0 00-3.3 2.713c-.017-1.468-.21-2.684-.518-3.705zm17.389.325c-1.127 2.254-3.114 4.524-3.942 5.422-.993-1.138-2.194-2.115-3.484-2.947 2.268-.981 4.776-1.865 7.426-2.475zm1.094.023c2.804 1.547 4.389 3.178 5.148 4.065-3.06.375-6.137.93-9.06 1.58 1.053-1.178 2.896-3.408 3.912-5.645zM22.8 16.121a25.476 25.476 0 012.533 1.164 56.183 56.183 0 00-3.617 1.899c.428-.86.76-1.724.97-2.563.042-.17.08-.337.114-.5zm-1.155.508c-.315 1.133-.862 2.304-1.562 3.45a9.41 9.41 0 00-1.627-.794 45.23 45.23 0 013.19-2.656zm4.998 1.406c1.338.83 2.582 1.82 3.592 2.985a100.769 100.769 0 00-6.96 1.935c.887-1.122 2.19-2.885 3.368-4.92zm-1.447.447a44.36 44.36 0 01-2.957 4.159c-.212-.76-.678-1.378-1.234-1.877a55.136 55.136 0 014.191-2.282zm-7.316 1.665c.34.118.8.3 1.302.572-.727.467-1.37.902-1.902 1.277.26-.595.467-1.211.6-1.85zm2.449 1.363c.593.536 1.04 1.225 1.033 2.088-.917.319-1.786.635-2.55.941-.428.172-1.004.418-1.635.697a25.214 25.214 0 003.152-3.726zm-1.918.916c-1.29 1.584-2.786 3.005-4.232 4.053a21.435 21.435 0 001.878-2.325c.074-.06.894-.728 2.354-1.728z" fill="#b71c1c"/></svg>