<svg xmlns="http://www.w3.org/2000/svg" viewBox="0 0 569 512"><path d="m285.5 201c-30.1 0-54.5 24.4-54.5 54.5s24.4 54.5 54.5 54.5 54.5-24.4 54.5-54.5-24.4-54.5-54.5-54.5"/><path d="m568.96 255.99c0-42.787-39.622-80.313-102.71-105.01 0.84302-5.5617 1.6058-11.063 2.1477-16.464 6.2223-61.48-8.5908-105.85-41.689-124.97-37.033-21.383-89.34-5.8628-142.23 36.462-52.89-42.325-105.2-57.845-142.23-36.462-33.099 19.114-47.912 63.487-41.689 124.97 0.54194 5.401 1.2846 10.923 2.1477 16.504-5.2589 2.0078-10.417 4.1361-15.375 6.3648-56.322 25.319-87.333 60.375-87.333 98.604 0 42.787 39.622 80.313 102.71 105.01-0.86309 5.5617-1.6058 11.063-2.1477 16.464-6.2223 61.48 8.5908 105.85 41.689 124.97 11.38 6.453 24.274 9.7522 37.354 9.5572 31.352 0 67.964-16.504 104.88-46.019 36.892 29.515 73.524 46.019 104.92 46.019 13.079 0.19202 25.973-3.107 37.354-9.5572 33.099-19.114 47.912-63.487 41.689-124.97-0.54194-5.401-1.3047-10.902-2.1477-16.464 63.086-24.656 102.71-62.243 102.71-105.01m-179.84-228.89c8.4099-0.20291 16.723 1.8343 24.086 5.903 22.982 13.272 33.299 49.272 28.281 98.765-0.34122 3.3731-0.74266 6.7864-1.2244 10.22-26.232-7.9021-53.093-13.538-80.288-16.846-16.486-21.92-34.818-42.388-54.796-61.178 31.372-24.255 60.818-36.864 83.921-36.864m-10.779 283.1c-10.152 17.625-21.206 34.714-33.119 51.199-20.193 2.0749-40.479 3.107-60.778 3.0922-20.292 0.014061-40.572-1.018-60.758-3.0922-11.881-16.486-22.902-33.575-33.018-51.199-10.151-17.576-19.377-35.671-27.639-54.211 8.2624-18.54 17.488-36.635 27.639-54.211 10.1-17.554 21.087-34.582 32.918-51.019 20.223-2.1263 40.544-3.1852 60.878-3.1725 20.292-0.012152 40.572 1.0199 60.758 3.0922 11.871 16.462 22.898 33.517 33.038 51.099 10.143 17.581 19.369 35.675 27.639 54.211-8.2705 18.536-17.496 36.631-27.639 54.211m41.449-20.078c6.3703 17.376 11.6 35.15 15.656 53.207-17.601 5.489-35.544 9.8151-53.713 12.95 6.9048-10.414 13.595-21.249 20.072-32.507 6.403-11.123 12.404-22.347 18.065-33.571m-173.44 100.17c12.485 0.76297 25.23 1.2047 38.137 1.2047s25.732-0.44172 38.237-1.2047c-11.856 14.205-24.629 27.62-38.237 40.156-13.578-12.535-26.318-25.949-38.137-40.156zm-59.052-34.133c-18.174-3.1213-36.124-7.4341-53.733-12.91 4.0396-18.029 9.2493-35.776 15.596-53.127 5.58 11.224 11.561 22.447 18.065 33.571 6.5033 11.123 13.227 22.086 20.072 32.507m-38.137-134.52c-6.3239-17.287-11.52-34.966-15.556-52.926 17.565-5.4824 35.467-9.8217 53.592-12.991-6.8646 10.38-13.589 21.142-20.072 32.366s-12.404 22.307-18.065 33.551m173.54-100.17c-12.485-0.76297-25.23-1.2047-38.237-1.2047-12.9 0-25.612 0.40156-38.137 1.2047 11.819-14.207 24.558-27.622 38.137-40.156 13.613 12.532 26.386 25.946 38.237 40.156zm79.084 66.62c-6.5033-11.271-13.227-22.113-20.172-32.527 18.216 3.1355 36.206 7.4684 53.853 12.971-4.049 18.027-9.2585 35.773-15.596 53.127-5.58-11.224-11.582-22.447-18.065-33.551m-274.2-56.44c-5.0782-49.473 5.299-85.493 28.261-98.765 7.3662-4.0623 15.677-6.0992 24.086-5.903 23.103 0 52.548 12.609 83.921 36.864-19.992 18.804-38.337 39.285-54.837 61.219-27.187 3.3233-54.046 8.9384-80.288 16.785-0.46166-3.4334-0.88317-6.8266-1.2043-10.2m-29.004 50.316c3.0911-1.3385 6.2424-2.6771 9.4539-4.0156 6.3137 26.645 14.875 52.706 25.592 77.904-10.737 25.247-19.305 51.363-25.612 78.064-51.143-20.982-80.79-50.055-80.79-78.064 0-26.543 26.094-53.468 71.356-73.888zm57.326 296.86c-22.962-13.272-33.34-49.292-28.261-98.765 0.32115-3.3731 0.74266-6.7664 1.2043-10.22 26.232 7.9 53.093 13.536 80.288 16.846 16.491 21.929 34.823 42.409 54.796 61.219-43.737 33.792-83.7 44.935-107.97 30.92m285.66-98.765c5.018 49.493-5.299 85.493-28.281 98.765-24.247 14.055-64.23 2.8712-107.95-30.92 19.967-18.81 38.292-39.29 54.776-61.219 27.195-3.3076 54.056-8.9435 80.288-16.846 0.48173 3.4535 0.88317 6.8467 1.2244 10.22m19.63-46.18c-6.3243-26.686-14.899-52.787-25.632-78.024 10.728-25.25 19.296-51.365 25.612-78.064 51.043 20.982 80.77 50.055 80.77 78.064 0 28.009-29.646 57.082-80.79 78.064"/></svg>
