<svg viewBox="0 0 256 256" xmlns="http://www.w3.org/2000/svg"><rect width="256" height="256" fill="#0073aa"/><path d="m128 28c-55.138 0-99.998 44.857-99.998 99.994 0 55.144 44.86 99.998 99.998 99.998 55.135 0 100-44.854 100-99.998-2e-3 -55.137-44.867-99.994-100-99.994zm0 4.5859c52.607 0 95.406 42.8 95.406 95.408 0 52.612-42.799 95.416-95.406 95.416-52.609 0-95.412-42.804-95.412-95.416 0-52.608 42.801-95.408 95.412-95.408zm-0.00196 9.6289c-29.968 0-56.333 15.375-71.672 38.664 2.0126 0.0604 3.9084 0.10352 5.5195 0.10352 8.9727 0 22.861-1.0879 22.861-1.0879 4.6243-0.2726 5.1702 6.5196 0.55078 7.0664 0 0-4.6473 0.54541-9.8184 0.81641l31.238 92.918 18.773-56.303-13.365-36.617c-4.619-0.2709-8.9941-0.81836-8.9941-0.81836-4.623-0.2709-4.082-7.3389 0.54102-7.0664 0 0 14.167 1.0879 22.596 1.0879 8.972 0 22.861-1.0879 22.861-1.0879 4.628-0.2725 5.1718 6.5196 0.55078 7.0664 0 0-4.6574 0.54746-9.8184 0.81836l31 92.213 8.5566-28.592c3.709-11.866 6.5312-20.388 6.5312-27.732 0-10.601-3.8082-17.941-7.0742-23.656-4.349-7.0662-8.4258-13.051-8.4258-20.117 0-7.8856 5.9823-15.227 14.406-15.227 0.381 0 0.74033 0.04706 1.1113 0.06836-15.262-13.982-35.596-22.518-57.93-22.518zm75.273 44.623c0.369 2.7324 0.57813 5.6651 0.57813 8.8203 0 8.7046-1.6264 18.491-6.5234 30.727l-26.203 75.76c25.503-14.872 42.656-42.501 42.656-74.148 1e-3 -14.915-3.8068-28.939-10.508-41.158zm-153.63 6.2441c-4.7597 10.669-7.4258 22.476-7.4258 34.912 0 33.955 19.732 63.299 48.346 77.205l-40.92-112.12zm79.863 42.416-25.738 74.789c7.684 2.259 15.811 3.4961 24.232 3.4961 9.989 0 19.569-1.7273 28.486-4.8633-0.23-0.367-0.44033-0.75664-0.61133-1.1816l-26.369-72.24z" fill="#fff"/></svg>