<?xml version="1.0" encoding="UTF-8"?>
<svg width="512" height="512" version="1.1" viewBox="0 0 512 512" xmlns="http://www.w3.org/2000/svg" xmlns:xlink="http://www.w3.org/1999/xlink"><defs><filter id="b" x="-.16" y="-.16123" width="1.32" height="1.3225" color-interpolation-filters="sRGB"><feFlood flood-color="#fff" flood-opacity=".8" in="SourceGraphic" result="flood"/><feGaussianBlur in="SourceGraphic" result="blur" stdDeviation="16"/><feOffset dx="0" dy="0" in="blur" result="offset"/><feComposite in="flood" in2="offset" operator="in" result="comp1"/><feComposite in="SourceGraphic" in2="comp1" result="comp2"/></filter><linearGradient id="a" x1="62.627" x2="451" y1="67.385" y2="444" gradientUnits="userSpaceOnUse"><stop stop-color="#00c1e5" offset="0"/><stop stop-color="#0028e5" offset="1"/></linearGradient></defs><rect width="512" height="512" ry="256" fill="url(#a)" style="mix-blend-mode:normal;paint-order:stroke markers fill"/><path d="m239.05 375.08q-7.3282 0-10.992-3.2061-3.2061-3.6641-5.4962-8.2443l-85.649-212.52q-0.91602-2.2901-0.91602-4.1222 0-4.1221 2.7481-6.8702 3.2061-3.2061 7.3282-3.2061h37.099q5.4962 0 8.2443 3.2061 2.7481 2.7481 3.6641 5.4962l60.916 160.76 60.916-160.76q0.91603-2.7481 3.6641-5.4962 2.7481-3.2061 8.2443-3.2061h37.557q3.6641 0 6.4122 3.2061 3.2061 2.7481 3.2061 6.8702 0 1.8321-0.45802 4.1222l-86.107 212.52q-1.8321 4.5802-5.4962 8.2443-3.6641 3.2061-10.992 3.2061z" fill="#fff" filter="url(#b)" stroke-linejoin="round" stroke-width="4.2881" style="paint-order:stroke markers fill;white-space:pre" aria-label="v"/></svg>
