<svg width="512" height="512" viewBox="0 0 512 512" xmlns="http://www.w3.org/2000/svg"><rect width="512" height="512" ry="256" fill="#0e1720"/><path d="m151.83 128.31a28 28 0 0 0-8.3525 2.6436 28 28 0 0 0-12.521 37.567l18.917 37.834a28 28 0 0 0 37.566 12.523 28 28 0 0 0 12.521-37.567l-18.917-37.835a28 28 0 0 0-29.214-15.165zm208.34 0a28 28 0 0 0-29.214 15.165l-74.956 149.91-20.599-41.198a28 28 0 0 0-37.566-12.523 28 28 0 0 0-12.521 37.567l45.642 91.287a28.003 28.003 0 0 0 50.088 0l100-200a28 28 0 0 0-12.521-37.567 28 28 0 0 0-8.3525-2.6436z" fill="#fff"/></svg>
