<svg width="1080" height="567" viewBox="0 0 1080 567" xmlns="http://www.w3.org/2000/svg"><rect width="1080" height="567" fill="#323330"/><path d="m382.09 490.16q-0.92099 0-1.5071-0.58607-0.58608-0.66981-0.58608-1.5071v-54.422q0-0.92099 0.58608-1.5071 0.58607-0.58607 1.5071-0.58607h39.1q0.92098 0 1.5071 0.58607 0.58607 0.58608 0.58607 1.5071v7.8702q0 0.92097-0.58607 1.5071-0.58608 0.58608-1.5071 0.58608h-26.708v11.303h24.867q0.92097 0 1.5071 0.6698 0.58608 0.58608 0.58608 1.5071v7.2841q0 0.83726-0.58608 1.5071-0.58609 0.58607-1.5071 0.58607h-24.867v11.638h27.378q0.92097 0 1.5071 0.58607 0.58608 0.58609 0.58608 1.5071v7.8702q0 0.83725-0.58608 1.5071-0.58609 0.58608-1.5071 0.58608zm73.26 0.83727q-8.3725 0-13.898-2.3443-5.5259-2.4281-8.3725-6.2794-2.8466-3.8514-3.0141-8.2052 0-0.6698 0.50235-1.1722 0.58608-0.58609 1.3396-0.58609h10.549q1.1722 0 1.7582 0.41864 0.66981 0.41863 1.1722 1.0884 0.66981 1.2559 1.8419 2.4281 1.2559 1.1722 3.2653 1.9257 2.0094 0.6698 4.856 0.6698 4.8561 0 7.2841-1.5071 2.5118-1.5071 2.5118-4.1025 0-1.9257-1.3396-3.0978-1.3396-1.1722-4.3537-2.0931-2.9304-1.0047-7.8702-2.0094-6.3631-1.3396-10.884-3.4328-4.4375-2.1769-6.7818-5.6096-2.3443-3.5165-2.3443-8.7075 0-5.1072 2.8466-9.1261 2.9304-4.0188 8.1214-6.2794 5.191-2.2606 12.308-2.2606 5.7771 0 10.13 1.5071 4.4375 1.5071 7.4516 4.0188 3.0141 2.5118 4.5212 5.3584 1.5908 2.763 1.6746 5.4422 0 0.66979-0.50236 1.2559-0.41863 0.50235-1.2559 0.50235h-11.052q-0.92098 0-1.5908-0.3349t-1.1722-1.0884q-0.50235-1.8419-2.6793-3.1816-2.0931-1.4234-5.5259-1.4234-3.684 0-5.7771 1.3396-2.0094 1.2559-2.0094 3.9351 0 1.6746 1.0884 2.9304 1.1722 1.2559 3.7677 2.1769 2.6792 0.92097 7.2841 1.9257 7.619 1.4234 12.308 3.6002 4.6887 2.0931 6.8655 5.5259 2.2606 3.349 2.2606 8.4563 0 5.6934-3.2653 9.7959-3.2653 4.1025-8.9587 6.3631-5.6096 2.1769-13.061 2.1769zm33.407-0.83727q-0.92098 0-1.5908-0.58607-0.58608-0.66981-0.58608-1.5071v-5.9446q0-0.58609 0.3349-1.7582 0.33491-1.2559 1.7582-2.3443l8.7075-8.54q6.6981-5.1072 10.968-8.6237 4.3537-3.6002 6.4469-6.3631 2.0932-2.763 2.0931-5.191 0-2.8466-1.5071-4.6887-1.4234-1.9257-5.0236-1.9257-2.4281 0-4.0188 1.0884-1.5908 1.0047-2.5118 2.6792-0.83725 1.6746-1.1722 3.4328-0.3349 1.0884-1.1722 1.5071-0.75353 0.41862-1.6745 0.41862h-10.466q-0.75353 0-1.2559-0.50235-0.50235-0.50236-0.50235-1.2559 0.0837-4.0188 1.6746-7.5353 1.6745-3.6002 4.6049-6.2794 3.0141-2.6792 7.1166-4.1863 4.1863-1.5908 9.3772-1.5908 7.1166 0 12.056 2.3443 5.0236 2.2606 7.619 6.3631 2.5955 4.0188 2.5955 9.461 0 4.1025-1.8419 7.7028-1.7582 3.5165-5.1072 6.7818-3.2653 3.1816-7.7865 6.6143l-7.7028 7.7865h21.518q0.92098 0 1.5071 0.58607 0.6698 0.58608 0.6698 1.5071v8.4563q0 0.83725-0.6698 1.5071-0.58608 0.58607-1.5071 0.58607zm77.195 0.83727q-6.0282 0-10.466-1.6746-4.3537-1.7582-7.2841-4.7724-2.9304-3.0141-4.4375-7.033-1.5071-4.0188-1.7582-8.6237-0.0837-2.2606-0.16745-5.1072 0-2.9304 0-5.8608 0.0837-3.0141 0.16745-5.3584 0.25117-4.6049 1.7582-8.54 1.5908-4.0188 4.5212-6.9493 3.0141-3.0141 7.3678-4.6887 4.4375-1.6745 10.298-1.6745 5.9446 0 10.298 1.6745 4.4375 1.6746 7.3678 4.6887 2.9304 2.9304 4.5212 6.9493 1.5908 3.9351 1.8419 8.54 0.0837 2.3443 0.0837 5.3584 0.0837 2.9304 0 5.8608 0 2.8466-0.0837 5.1072-0.25117 4.6049-1.8419 8.6237-1.5071 4.0188-4.4375 7.033-2.8466 3.0141-7.2841 4.7724-4.3537 1.6746-10.466 1.6746zm0-12.14q4.3537 0 6.2794-2.763 2.0094-2.8466 2.0931-7.619 0.16745-2.4281 0.16745-5.1072 0.0837-2.6792 0-5.3584 0-2.6793-0.16745-4.9398-0.0837-4.6049-2.0931-7.4516-1.9257-2.8466-6.2794-2.9304-4.27 0.0837-6.2794 2.9304-1.9257 2.8466-2.0931 7.4516 0 2.2606-0.0837 4.9398 0 2.6792 0 5.3584 0.0837 2.6793 0.0837 5.1072 0.16744 4.7724 2.1769 7.619 2.0094 2.763 6.1957 2.763zm34.16 11.303q-0.92099 0-1.5908-0.58608-0.58607-0.66981-0.58607-1.5071v-5.9446q0-0.58608 0.3349-1.7582 0.33491-1.2559 1.7582-2.3443l8.7075-8.54q6.6981-5.1072 10.968-8.6237 4.3537-3.6002 6.4469-6.3631 2.0931-2.763 2.0931-5.191 0-2.8466-1.5071-4.6887-1.4234-1.9257-5.0235-1.9257-2.4281 0-4.0188 1.0884-1.5908 1.0047-2.5118 2.6793-0.83726 1.6745-1.1722 3.4328-0.33489 1.0884-1.1722 1.5071-0.75353 0.41863-1.6745 0.41863h-10.466q-0.75353 0-1.2559-0.50236-0.50235-0.50235-0.50235-1.2559 0.0837-4.0188 1.6745-7.5353 1.6746-3.6002 4.6049-6.2794 3.0141-2.6793 7.1167-4.1863 4.1863-1.5908 9.3772-1.5908 7.1166 0 12.056 2.3443 5.0235 2.2606 7.619 6.3631 2.5955 4.0188 2.5955 9.461 0 4.1025-1.8419 7.7028-1.7582 3.5165-5.1072 6.7818-3.2653 3.1816-7.7865 6.6143l-7.7028 7.7865h21.518q0.92098 0 1.5071 0.58608 0.6698 0.58607 0.6698 1.5071v8.4563q0 0.83725-0.6698 1.5071-0.58608 0.58608-1.5071 0.58608zm75.604 0.92098q-7.8702 0-13.145-2.4281-5.2747-2.5118-8.0377-6.4469-2.6793-4.0188-2.8466-8.6237 0-0.75353 0.50235-1.2559 0.50236-0.50236 1.2559-0.50236h11.22q1.0884 0 1.6745 0.41863 0.6698 0.41862 1.0047 1.1722 0.75353 1.9257 2.0094 3.1816 1.2559 1.2559 2.8466 1.8419 1.5908 0.58608 3.6002 0.58608 2.3443 0 4.3537-1.0047 2.0094-1.0047 3.1816-2.9304 1.2559-2.0094 1.2559-4.7724 0-2.5118-1.1722-4.3537-1.0884-1.8419-3.0978-2.9304-1.9257-1.0884-4.5212-1.0884-2.0094 0-3.2653 0.50236-1.2559 0.41863-2.0931 1.0884-0.83726 0.6698-1.5071 1.1722-0.66981 0.41863-1.5071 0.41863h-10.968q-0.75353 0-1.3396-0.50235-0.50235-0.58609-0.50235-1.3396l3.0141-29.22q0.16746-1.2559 0.92099-1.8419 0.75353-0.6698 1.8419-0.6698h33.574q0.92099 0 1.5071 0.58607 0.66981 0.58608 0.66981 1.5071v7.8702q0 0.92097-0.66981 1.5071-0.58608 0.58608-1.5071 0.58608h-24.281l-1.0884 10.801q1.8419-1.1722 4.27-2.0094 2.5118-0.83727 6.8655-0.83727 3.9351 0 7.5353 1.4234 3.684 1.3396 6.5306 3.8514 2.9304 2.5118 4.5212 6.0282 1.6746 3.4328 1.6746 7.7865 0 5.9446-2.9304 10.549-2.8466 4.6049-8.2888 7.2841-5.4422 2.5955-13.061 2.5955z" fill="#f0db4f" aria-label="ES2025"/><rect x="380" y="75.917" width="320" height="320" rx="64" fill="#f0db4f"/><path d="m672.21 318c-2.3422-14.601-11.863-26.859-40.061-38.297-9.7947-4.5019-20.715-7.7259-23.97-15.148-1.1559-4.3194-1.308-6.7528-0.57795-9.3688 2.0989-8.4867 12.228-11.133 20.259-8.6996 5.1711 1.7338 10.068 5.7189 13.019 12.076 13.81-8.9426 13.779-8.8821 23.422-15.026-3.5285-5.4753-5.4144-8.0003-7.7262-10.342-8.3042-9.2776-19.62-14.053-37.719-13.688-3.1331 0.39544-6.2963 0.82098-9.4296 1.2167-9.0339 2.2814-17.643 7.0266-22.692 13.384-15.148 17.186-10.829 47.27 7.6046 59.65 18.16 13.627 44.836 16.73 48.243 29.475 3.3156 15.605-11.467 20.654-26.16 18.859-10.829-2.251-16.851-7.7567-23.361-17.764-11.984 6.9354-11.984 6.9354-24.304 14.023 2.9202 6.3878 5.9921 9.2776 10.89 14.814 23.179 23.513 81.186 22.357 91.589-13.232 0.42554-1.217 3.2243-9.3691 0.97307-21.932zm-119.85-96.608h-29.932c0 25.856-0.12137 51.529-0.12137 77.384 0 16.456 0.85171 31.544-1.8251 36.167-4.3802 9.0948-15.726 7.9696-20.897 6.205-5.2624-2.5856-7.9392-6.2662-11.042-11.467-0.85171-1.4905-1.4905-2.6464-1.7037-2.7376-8.1214 4.9582-16.213 9.9465-24.335 14.905 4.0459 8.3042 10.008 15.513 17.643 20.197 11.407 6.8441 26.738 8.943 42.768 5.2624 10.433-3.0418 19.437-9.3381 24.152-18.92 6.8137-12.563 5.3536-27.772 5.2928-44.593 0.15208-27.437 0-54.875 0-82.403z" fill="#323330"/></svg>
