<svg xmlns="http://www.w3.org/2000/svg" style="display: none;">
<symbol id="github" viewBox="0 0 24 24" fill="none" stroke="currentColor" stroke-width="2" stroke-linecap="round" stroke-linejoin="round" class="lucide lucide-github"><path d="M15 22v-4a4.8 4.8 0 0 0-1-3.5c3 0 6-2 6-5.5.08-1.25-.27-2.48-1-3.5.28-1.15.28-2.35 0-3.5 0 0-1 0-3 1.5-2.64-.5-5.36-.5-8 0C6 2 5 2 5 2c-.3 1.15-.3 2.35 0 3.5A5.403 5.403 0 0 0 4 9c0 3.5 3 5.5 6 5.5-.39.49-.68 1.05-.85 1.65-.17.6-.22 1.23-.15 1.85v4"/><path d="M9 18c-4.51 2-5-2-7-2"/></symbol>
<symbol id="linkedin" viewBox="0 0 24 24" fill="none" stroke="currentColor" stroke-width="2" stroke-linecap="round" stroke-linejoin="round"><path d="M16 8a6 6 0 0 1 6 6v7h-4v-7a2 2 0 0 0-2-2 2 2 0 0 0-2 2v7h-4v-7a6 6 0 0 1 6-6z"/><rect width="4" height="12" x="2" y="9"/><circle cx="4" cy="4" r="2"/></symbol>
<symbol id="youtube" viewBox="0 0 24 24"><path d="M23 9.70998C23.0495 8.27864 22.7365 6.858 22.09 5.57998C21.6514 5.05558 21.0427 4.70169 20.37 4.57998C17.5875 4.32751 14.7936 4.22403 12 4.26998C9.21667 4.22194 6.43274 4.32208 3.66003 4.56998C3.11185 4.6697 2.60454 4.92683 2.20003 5.30998C1.30003 6.13998 1.20003 7.55998 1.10003 8.75998C0.954939 10.9175 0.954939 13.0824 1.10003 15.24C1.12896 15.9154 1.22952 16.5858 1.40003 17.24C1.5206 17.745 1.76455 18.2123 2.11003 18.6C2.51729 19.0034 3.03641 19.2752 3.60003 19.38C5.75594 19.6461 7.92824 19.7564 10.1 19.71C13.6 19.76 16.67 19.71 20.3 19.43C20.8775 19.3316 21.4112 19.0595 21.83 18.65C22.11 18.3699 22.3191 18.0271 22.44 17.65C22.7977 16.5526 22.9733 15.4041 22.96 14.25C23 13.69 23 10.31 23 9.70998ZM9.74003 14.85V8.65998L15.66 11.77C14 12.69 11.81 13.73 9.74003 14.85Z" fill="currentColor"/></symbol>
<symbol id="tiktok" viewBox="0 0 24 24"><path d="M12.525.02c1.31-.02 2.61-.01 3.91-.02.08 1.53.63 3.09 1.75 4.17 1.12 1.11 2.7 1.62 4.24 1.79v4.03c-1.44-.05-2.89-.35-4.2-.97-.57-.26-1.1-.59-1.62-.93-.01 2.92.01 5.84-.02 8.75-.08 1.4-.54 2.79-1.35 3.94-1.31 1.92-3.58 3.17-5.91 3.21-1.43.08-2.86-.31-4.08-1.03-2.02-1.19-3.44-3.37-3.65-5.71-.02-.5-.03-1-.01-1.49.18-1.9 1.12-3.72 2.58-4.96 1.66-1.44 3.98-2.13 6.15-1.72.02 1.48-.04 2.96-.04 4.44-.99-.32-2.15-.23-3.02.37-.63.41-1.11 1.04-1.36 1.75-.21.51-.15 1.07-.14 1.61.24 1.64 1.82 3.02 3.5 2.87 1.12-.01 2.19-.66 2.77-1.61.19-.33.4-.67.41-1.06.1-1.79.06-3.57.07-5.36.01-4.03-.01-8.05.02-12.07z" fill="currentColor"/></symbol>
<symbol id="x" viewBox="0 0 24 24"><path fill="currentColor" d="M18.244 2.25h3.308l-7.227 8.26 8.502 11.24H16.17l-5.214-6.817L4.99 21.75H1.68l7.73-8.835L1.254 2.25H8.08l4.713 6.231zm-1.161 17.52h1.833L7.084 4.126H5.117z"/></symbol>
<symbol id="pinterest" viewBox="0 0 256 256"><path fill="currentColor" d="M0 128.002c0 52.414 31.518 97.442 76.619 117.239c-.36-8.938-.064-19.668 2.228-29.393c2.461-10.391 16.47-69.748 16.47-69.748s-4.089-8.173-4.089-20.252c0-18.969 10.994-33.136 24.686-33.136c11.643 0 17.268 8.745 17.268 19.217c0 11.704-7.465 29.211-11.304 45.426c-3.207 13.578 6.808 24.653 20.203 24.653c24.252 0 40.586-31.149 40.586-68.055c0-28.054-18.895-49.052-53.262-49.052c-38.828 0-63.017 28.956-63.017 61.3c0 11.152 3.288 19.016 8.438 25.106c2.368 2.797 2.697 3.922 1.84 7.134c-.614 2.355-2.024 8.025-2.608 10.272c-.852 3.242-3.479 4.401-6.409 3.204c-17.884-7.301-26.213-26.886-26.213-48.902c0-36.361 30.666-79.961 91.482-79.961c48.87 0 81.035 35.364 81.035 73.325c0 50.213-27.916 87.726-69.066 87.726c-13.819 0-26.818-7.47-31.271-15.955c0 0-7.431 29.492-9.005 35.187c-2.714 9.869-8.026 19.733-12.883 27.421a127.897 127.897 0 0 0 36.277 5.249c70.684 0 127.996-57.309 127.996-128.005C256.001 57.309 198.689 0 128.005 0C57.314 0 0 57.309 0 128.002"/></symbol>
<symbol id="bluesky" preserveAspectRatio="xMidYMi" viewBox="0 0 256 226"><path fill="currentColor" d="M55.491 15.172c29.35 22.035 60.917 66.712 72.509 90.686 11.592-23.974 43.159-68.651 72.509-90.686C221.686-.727 256-13.028 256 26.116c0 7.818-4.482 65.674-7.111 75.068-9.138 32.654-42.436 40.983-72.057 35.942 51.775 8.812 64.946 38 36.501 67.187-54.021 55.433-77.644-13.908-83.696-31.676-1.11-3.257-1.63-4.78-1.637-3.485-.008-1.296-.527.228-1.637 3.485-6.052 17.768-29.675 87.11-83.696 31.676-28.445-29.187-15.274-58.375 36.5-67.187-29.62 5.041-62.918-3.288-72.056-35.942C4.482 91.79 0 33.934 0 26.116 0-13.028 34.314-.727 55.491 15.172Z"/></symbol>
</svg>
