<svg preserveAspectRatio="xMidYMid" viewBox="0 0 256 265" xmlns="http://www.w3.org/2000/svg"><defs><radialGradient id="fb_b" cx="-7907.2" cy="-8515.1" r="80.797" gradientTransform="matrix(3.3067 0 0 3.3067 26367 28186)" gradientUnits="userSpaceOnUse"><stop stop-color="#ffbd4f" offset=".129"/><stop stop-color="#ffac31" offset=".186"/><stop stop-color="#ff9d17" offset=".247"/><stop stop-color="#ff980e" offset=".283"/><stop stop-color="#ff563b" offset=".403"/><stop stop-color="#ff3750" offset=".467"/><stop stop-color="#f5156c" offset=".71"/><stop stop-color="#eb0878" offset=".782"/><stop stop-color="#e50080" offset=".86"/></radialGradient><radialGradient id="fb_c" cx="-7936.7" cy="-8482.1" r="80.797" gradientTransform="matrix(3.3067 0 0 3.3067 26367 28186)" gradientUnits="userSpaceOnUse"><stop stop-color="#960e18" offset=".3"/><stop stop-color="#b11927" stop-opacity=".74" offset=".351"/><stop stop-color="#db293d" stop-opacity=".343" offset=".435"/><stop stop-color="#f5334b" stop-opacity=".094" offset=".497"/><stop stop-color="#ff3750" stop-opacity="0" offset=".53"/></radialGradient><radialGradient id="fb_d" cx="-7927" cy="-8533.5" r="58.534" gradientTransform="matrix(3.3067 0 0 3.3067 26367 28186)" gradientUnits="userSpaceOnUse"><stop stop-color="#fff44f" offset=".132"/><stop stop-color="#ffdc3e" offset=".252"/><stop stop-color="#ff9d12" offset=".506"/><stop stop-color="#ff980e" offset=".526"/></radialGradient><radialGradient id="fb_e" cx="-7945.6" cy="-8461" r="38.471" gradientTransform="matrix(3.3067 0 0 3.3067 26367 28186)" gradientUnits="userSpaceOnUse"><stop stop-color="#3a8ee6" offset=".353"/><stop stop-color="#5c79f0" offset=".472"/><stop stop-color="#9059ff" offset=".669"/><stop stop-color="#c139e6" offset="1"/></radialGradient><radialGradient id="fb_f" cx="-7935.6" cy="-8491.5" r="20.397" gradientTransform="matrix(3.2141 -.77707 .90934 3.763 33365 25904)" gradientUnits="userSpaceOnUse"><stop stop-color="#9059ff" stop-opacity="0" offset=".206"/><stop stop-color="#8c4ff3" stop-opacity=".064" offset=".278"/><stop stop-color="#7716a8" stop-opacity=".45" offset=".747"/><stop stop-color="#6e008b" stop-opacity=".6" offset=".975"/></radialGradient><radialGradient id="fb_g" cx="-7937.7" cy="-8518.4" r="27.676" gradientTransform="matrix(3.3067 0 0 3.3067 26367 28186)" gradientUnits="userSpaceOnUse"><stop stop-color="#ffe226" offset="0"/><stop stop-color="#ffdb27" offset=".121"/><stop stop-color="#ffc82a" offset=".295"/><stop stop-color="#ffa930" offset=".502"/><stop stop-color="#ff7e37" offset=".732"/><stop stop-color="#ff7139" offset=".792"/></radialGradient><radialGradient id="fb_h" cx="-7916" cy="-8536" r="118.08" gradientTransform="matrix(3.3067 0 0 3.3067 26367 28186)" gradientUnits="userSpaceOnUse"><stop stop-color="#fff44f" offset=".113"/><stop stop-color="#ff980e" offset=".456"/><stop stop-color="#ff5634" offset=".622"/><stop stop-color="#ff3647" offset=".716"/><stop stop-color="#e31587" offset=".904"/></radialGradient><radialGradient id="fb_i" cx="-7927.2" cy="-8522.9" r="86.499" gradientTransform="matrix(.3472 3.2902 -2.1593 .22816 -15493 28008)" gradientUnits="userSpaceOnUse"><stop stop-color="#fff44f" offset="0"/><stop stop-color="#ffe847" offset=".06"/><stop stop-color="#ffc830" offset=".168"/><stop stop-color="#ff980e" offset=".304"/><stop stop-color="#ff8b16" offset=".356"/><stop stop-color="#ff672a" offset=".455"/><stop stop-color="#ff3647" offset=".57"/><stop stop-color="#e31587" offset=".737"/></radialGradient><radialGradient id="fb_j" cx="-7938.4" cy="-8508.2" r="73.72" gradientTransform="matrix(3.3067 0 0 3.3067 26367 28186)" gradientUnits="userSpaceOnUse"><stop stop-color="#fff44f" offset=".137"/><stop stop-color="#ff980e" offset=".48"/><stop stop-color="#ff5634" offset=".592"/><stop stop-color="#ff3647" offset=".655"/><stop stop-color="#e31587" offset=".904"/></radialGradient><radialGradient id="fb_k" cx="-7918.9" cy="-8503.9" r="80.686" gradientTransform="matrix(3.3067 0 0 3.3067 26367 28186)" gradientUnits="userSpaceOnUse"><stop stop-color="#fff44f" offset=".094"/><stop stop-color="#ffe141" offset=".231"/><stop stop-color="#ffaf1e" offset=".509"/><stop stop-color="#ff980e" offset=".626"/></radialGradient><linearGradient id="fb_a" x1="70.786" x2="6.447" y1="12.393" y2="74.468" gradientTransform="matrix(3.3067 0 0 3.3067 -4.299 -.014256)" gradientUnits="userSpaceOnUse"><stop stop-color="#fff44f" offset=".048"/><stop stop-color="#ffe847" offset=".111"/><stop stop-color="#ffc830" offset=".225"/><stop stop-color="#ff980e" offset=".368"/><stop stop-color="#ff8b16" offset=".401"/><stop stop-color="#ff672a" offset=".462"/><stop stop-color="#ff3647" offset=".534"/><stop stop-color="#e31587" offset=".705"/></linearGradient><linearGradient id="fb_l" x1="70.013" x2="15.267" y1="12.061" y2="66.806" gradientTransform="matrix(3.3067 0 0 3.3067 -4.299 -.014256)" gradientUnits="userSpaceOnUse"><stop stop-color="#fff44f" stop-opacity=".8" offset=".167"/><stop stop-color="#fff44f" stop-opacity=".634" offset=".266"/><stop stop-color="#fff44f" stop-opacity=".217" offset=".489"/><stop stop-color="#fff44f" stop-opacity="0" offset=".6"/></linearGradient></defs><path d="m246.73 88.709c-5.569-13.399-16.864-27.866-25.71-32.439a133.17 133.17 0 0 1 12.979 38.9l0.023 0.215c-14.49-36.126-39.062-50.692-59.13-82.41a155.1 155.1 0 0 1-3.019-4.907 40.605 40.605 0 0 1-1.412-2.645 23.31 23.31 0 0 1-1.912-5.076 0.331 0.331 0 0 0-0.291-0.331 0.469 0.469 0 0 0-0.241 0c-0.016 0-0.043 0.03-0.063 0.037-0.02 6e-3 -0.063 0.036-0.092 0.049l0.049-0.086c-32.19 18.849-43.113 53.741-44.118 71.194a64.108 64.108 0 0 0-35.269 13.593 38.336 38.336 0 0 0-3.307-2.506 59.417 59.417 0 0 1-0.36-31.324 94.912 94.912 0 0 0-30.848 23.841h-0.06c-5.079-6.438-4.722-27.667-4.431-32.102a22.957 22.957 0 0 0-4.279 2.272 93.435 93.435 0 0 0-12.526 10.73 111.95 111.95 0 0 0-11.98 14.375v0.019-0.023a108.26 108.26 0 0 0-17.195 38.831l-0.171 0.846a203.82 203.82 0 0 0-1.26 8.003c0 0.096-0.02 0.185-0.03 0.281a122.12 122.12 0 0 0-2.08 17.667v0.662c0.086 98.661 106.94 160.23 192.34 110.83a128.16 128.17 0 0 0 62.12-89.153c0.215-1.653 0.39-3.29 0.582-4.96a131.8 131.8 0 0 0-8.313-64.378zm-147.71 100.32c0.599 0.288 1.161 0.599 1.776 0.873l0.089 0.057a68.838 68.838 0 0 1-1.865-0.93zm29.357-77.297m105.66-16.315v-0.123l0.023 0.136z" fill="url(#fb_a)"/><path d="m246.73 88.709c-5.569-13.399-16.864-27.866-25.71-32.439a133.17 133.17 0 0 1 12.979 38.9v0.122l0.023 0.136a116.07 116.07 0 0 1-3.988 86.497c-14.688 31.516-50.242 63.819-105.89 62.248-60.132-1.703-113.09-46.323-122.99-104.77-1.802-9.216 0-13.888 0.906-21.378a95.444 95.444 0 0 0-2.06 17.684v0.662c0.086 98.661 106.94 160.23 192.34 110.83a128.16 128.17 0 0 0 62.12-89.153c0.215-1.653 0.39-3.29 0.582-4.96a131.8 131.8 0 0 0-8.313-64.378z" fill="url(#fb_b)"/><path d="m246.73 88.709c-5.569-13.399-16.864-27.866-25.71-32.439a133.17 133.17 0 0 1 12.979 38.9v0.122l0.023 0.136a116.07 116.07 0 0 1-3.988 86.497c-14.688 31.516-50.242 63.819-105.89 62.248-60.132-1.703-113.09-46.323-122.99-104.77-1.802-9.216 0-13.888 0.906-21.378a95.444 95.444 0 0 0-2.06 17.684v0.662c0.086 98.661 106.94 160.23 192.34 110.83a128.16 128.17 0 0 0 62.12-89.153c0.215-1.653 0.39-3.29 0.582-4.96a131.8 131.8 0 0 0-8.313-64.378z" fill="url(#fb_c)"/><path d="m184.45 103.77c0.278 0.195 0.536 0.39 0.797 0.585a69.775 69.775 0 0 0-11.904-15.525c-39.832-39.839-10.439-86.381-5.482-88.745l0.049-0.073c-32.19 18.849-43.113 53.741-44.118 71.194 1.495-0.103 2.976-0.229 4.504-0.229a64.68 64.68 0 0 1 56.154 32.793z" fill="url(#fb_d)"/><path d="m128.38 111.73c-0.212 3.188-11.475 14.182-15.413 14.182-36.443 0-42.359 22.046-42.359 22.046 1.614 18.564 14.55 33.854 30.187 41.942 0.714 0.371 1.439 0.705 2.163 1.032a70.572 70.572 0 0 0 3.763 1.541 56.974 56.974 0 0 0 16.675 3.217c63.876 2.996 76.25-76.384 30.154-99.419a44.241 44.241 0 0 1 30.901 7.503 64.68 64.68 0 0 0-56.154-32.793c-1.521 0-3.009 0.126-4.504 0.229a64.108 64.108 0 0 0-35.269 13.593c1.954 1.654 4.16 3.863 8.806 8.442 8.696 8.568 31 17.443 31.05 18.485z" fill="url(#fb_e)"/><path d="m128.38 111.73c-0.212 3.188-11.475 14.182-15.413 14.182-36.443 0-42.359 22.046-42.359 22.046 1.614 18.564 14.55 33.854 30.187 41.942 0.714 0.371 1.439 0.705 2.163 1.032a70.572 70.572 0 0 0 3.763 1.541 56.974 56.974 0 0 0 16.675 3.217c63.876 2.996 76.25-76.384 30.154-99.419a44.241 44.241 0 0 1 30.901 7.503 64.68 64.68 0 0 0-56.154-32.793c-1.521 0-3.009 0.126-4.504 0.229a64.108 64.108 0 0 0-35.269 13.593c1.954 1.654 4.16 3.863 8.806 8.442 8.696 8.568 31 17.443 31.05 18.485z" fill="url(#fb_f)"/><path d="m82.552 80.541a81.51 81.51 0 0 1 2.645 1.756 59.407 59.407 0 0 1-0.36-31.324 94.926 94.926 0 0 0-30.849 23.841c0.625-0.017 19.216-0.351 28.564 5.727z" fill="url(#fb_g)"/><path d="m1.171 139.41c9.89 58.443 62.857 103.06 122.99 104.77 55.652 1.574 91.205-30.732 105.89-62.248a116.07 116.07 0 0 0 3.988-86.497v-0.122c0-0.096-0.02-0.153 0-0.123l0.023 0.215c4.547 29.684-10.552 58.443-34.155 77.889l-0.073 0.166c-45.989 37.455-90.002 22.598-98.91 16.533a64.67 64.67 0 0 1-1.865-0.929c-26.814-12.817-37.891-37.247-35.517-58.198a32.912 32.912 0 0 1-30.359-19.096 48.336 48.336 0 0 1 47.117-1.891 63.821 63.821 0 0 0 48.119 1.891c-0.049-1.042-22.353-9.92-31.05-18.484-4.646-4.58-6.851-6.786-8.805-8.442a38.145 38.145 0 0 0-3.307-2.507c-0.761-0.519-1.617-1.081-2.645-1.756-9.348-6.078-27.939-5.744-28.554-5.727h-0.059c-5.079-6.438-4.722-27.667-4.431-32.101a22.862 22.862 0 0 0-4.279 2.271 93.373 93.373 0 0 0-12.526 10.73 112.06 112.06 0 0 0-12.03 14.342v0.019-0.023a108.26 108.26 0 0 0-17.195 38.831c-0.062 0.261-4.616 20.167-2.37 30.491z" fill="url(#fb_h)"/><path d="m173.35 88.834a69.818 69.818 0 0 1 11.904 15.542 26.607 26.607 0 0 1 1.921 1.574c29.056 26.784 13.832 64.646 12.698 67.341 23.603-19.447 38.688-48.205 34.155-77.89-14.497-36.142-39.069-50.708-59.137-82.426a155.1 155.1 0 0 1-3.019-4.907 40.605 40.605 0 0 1-1.412-2.645 23.31 23.31 0 0 1-1.912-5.076 0.331 0.331 0 0 0-0.291-0.331 0.469 0.469 0 0 0-0.241 0c-0.016 0-0.043 0.03-0.063 0.037-0.02 6e-3 -0.063 0.036-0.092 0.049-4.957 2.351-34.35 48.893 5.489 88.732z" fill="url(#fb_i)"/><path d="m187.16 105.93a26.822 26.822 0 0 0-1.921-1.574c-0.261-0.195-0.519-0.39-0.797-0.585a44.243 44.243 0 0 0-30.901-7.503c46.095 23.048 33.728 102.42-30.154 99.419a56.974 56.974 0 0 1-16.675-3.217 67.38 67.38 0 0 1-3.763-1.541c-0.725-0.331-1.449-0.661-2.163-1.032l0.089 0.057c8.908 6.081 52.907 20.938 98.91-16.534l0.073-0.165c1.147-2.679 16.371-40.55-12.698-67.325z" fill="url(#fb_j)"/><path d="m70.611 147.96s5.916-22.046 42.359-22.046c3.938 0 15.211-10.994 15.413-14.182a63.817 63.817 0 0 1-48.119-1.892 48.341 48.341 0 0 0-47.118 1.892 32.912 32.912 0 0 0 30.359 19.096c-2.374 20.955 8.703 45.385 35.517 58.198 0.599 0.288 1.161 0.599 1.776 0.873-15.65-8.085-28.573-23.375-30.187-41.939z" fill="url(#fb_k)"/><path d="m246.73 88.709c-5.569-13.399-16.864-27.866-25.71-32.439a133.17 133.17 0 0 1 12.979 38.9l0.023 0.215c-14.49-36.126-39.062-50.692-59.13-82.41a155.1 155.1 0 0 1-3.019-4.907 40.605 40.605 0 0 1-1.412-2.645 23.31 23.31 0 0 1-1.912-5.076 0.331 0.331 0 0 0-0.291-0.331 0.469 0.469 0 0 0-0.241 0c-0.016 0-0.043 0.03-0.063 0.037-0.02 6e-3 -0.063 0.036-0.092 0.049l0.049-0.086c-32.19 18.849-43.113 53.741-44.118 71.194 1.495-0.103 2.976-0.229 4.504-0.229a64.68 64.68 0 0 1 56.154 32.793 44.241 44.241 0 0 0-30.901-7.503c46.096 23.048 33.729 102.42-30.154 99.419a56.974 56.974 0 0 1-16.675-3.217 67.38 67.38 0 0 1-3.763-1.541c-0.724-0.331-1.449-0.661-2.163-1.032l0.089 0.057a68.838 68.838 0 0 1-1.865-0.93c0.599 0.288 1.161 0.599 1.776 0.873-15.65-8.088-28.573-23.378-30.187-41.942 0 0 5.916-22.046 42.359-22.046 3.938 0 15.211-10.994 15.413-14.182-0.05-1.042-22.354-9.92-31.05-18.485-4.646-4.579-6.852-6.785-8.806-8.442a38.336 38.336 0 0 0-3.307-2.506 59.417 59.417 0 0 1-0.36-31.324 94.912 94.912 0 0 0-30.848 23.841h-0.06c-5.079-6.438-4.722-27.667-4.431-32.102a22.957 22.957 0 0 0-4.279 2.272 93.435 93.435 0 0 0-12.526 10.73 111.95 111.95 0 0 0-11.98 14.375v0.019-0.023a108.26 108.26 0 0 0-17.195 38.831l-0.171 0.846c-0.242 1.128-1.323 6.855-1.479 8.085v0a149.15 149.15 0 0 0-1.891 17.866v0.662c0.086 98.661 106.94 160.23 192.34 110.83a128.16 128.17 0 0 0 62.12-89.153c0.215-1.653 0.39-3.29 0.582-4.96a131.8 131.8 0 0 0-8.313-64.378zm-12.715 6.583 0.024 0.136z" fill="url(#fb_l)"/></svg>
