<svg width="512" height="512" viewBox="0 0 512 512" xmlns="http://www.w3.org/2000/svg"><defs><linearGradient id="a" x1="351.9" x2="160.1" y1="18.641" y2="493.36" gradientUnits="userSpaceOnUse"><stop stop-color="#075187" offset="0"/><stop stop-color="#649dce" offset="1"/></linearGradient></defs><rect width="512" height="512" ry="96" fill="url(#a)"/><path d="m155.23 128.36a32 32 0 0 0-9.5449 3.0215 32 32 0 0 0-14.311 42.933l9.1211 18.242a32 32 0 0 0 42.933 14.311 32 32 0 0 0 14.311-42.933l-9.1201-18.241a32 32 0 0 0-33.388-17.333zm201.53 0a32 32 0 0 0-33.388 17.333l-67.378 134.76-19.344-38.688a32 32 0 0 0-42.933-14.311 32 32 0 0 0-14.311 42.933l47.965 95.932a32.003 32.004 0 0 0 57.244 0l96-192a32 32 0 0 0-14.311-42.933 32 32 0 0 0-9.5449-3.0215z" fill="#fff"/></svg>