<svg aria-label="Logo" width="512" height="512" viewBox="0 0 512 512" xmlns="http://www.w3.org/2000/svg"><path d="m54.469 0.71373a64 64.001 0 0 0-19.09 6.043 64 64.001 0 0 0-28.623 85.866l18.242 36.485a64 64.001 0 0 0 85.865 28.621 64 64.001 0 0 0 28.621-85.866l-18.24-36.483a64 64.001 0 0 0-66.775-34.666zm403.06 0a64 64.001 0 0 0-66.775 34.666l-134.76 269.51-38.687-77.376a64 64.001 0 0 0-85.865-28.621 64 64.001 0 0 0-28.621 85.866l95.929 191.86a64.006 64.007 0 0 0 114.49 0l192-384a64 64.001 0 0 0-28.623-85.866 64 64.001 0 0 0-19.09-6.043z" fill="currentColor"/></svg>