<svg xmlns="http://www.w3.org/2000/svg" viewBox="0 0 61 65"><path d="m29.918 0c-10.687 0-12.979 0.65594-14.197 0.83594-7.015 1.037-13.423 5.9848-14.977 13.051-0.748 3.48-0.8265 7.338-0.6875 10.877 0.198 5.075 0.23727 10.142 0.69727 15.197a71.482 71.482 0 0 0 1.6641 9.9668c1.477 6.056 7.4574 11.096 13.316 13.152a35.718 35.718 0 0 0 19.484 1.0273 28.365 28.365 0 0 0 2.1055-0.57617c1.572-0.5 3.4146-1.0561 4.7676-2.0371a0.154 0.154 0 0 0 0.060547-0.11719v-4.9004a0.146 0.146 0 0 0-0.054688-0.11133 0.145 0.145 0 0 0-0.12109-0.027343 54 54 0 0 1-12.645 1.4785c-7.328 0-9.2983-3.4788-9.8633-4.9258a15.258 15.258 0 0 1-0.85742-3.8809 0.142 0.142 0 0 1 0.17773-0.14648 52.976 52.976 0 0 0 12.438 1.4785c1.007 0 2.0115-0.001344 3.0195-0.027344 4.213-0.119 8.6548-0.33258 12.801-1.1426 0.103-0.02 0.20592-0.039406 0.29492-0.066406 6.539-1.255 12.763-5.1958 13.395-15.176 0.024-0.393 0.082031-4.1154 0.082031-4.5234 3e-3 -1.386 0.44655-9.8276-0.064453-15.016-0.94-6.984-7.0272-12.488-14.242-13.555-1.218-0.18-5.8306-0.83594-16.516-0.83594h-0.078125zm-8.9141 10.635c3.519 0 6.1762 1.3536 7.9492 4.0566l1.7109 2.8711 1.7148-2.8711c1.773-2.704 4.4323-4.0547 7.9453-4.0547 3.038 0 5.4864 1.0674 7.3594 3.1504 1.81 2.085 2.7129 4.9022 2.7109 8.4492v17.352h-6.875v-16.84c0-3.545-1.4774-5.3516-4.4824-5.3516-3.303 0-4.959 2.1383-4.959 6.3633v9.2168h-6.834v-9.2168c0-4.225-1.6579-6.3633-4.9609-6.3633-2.988 0-4.4785 1.8066-4.4785 5.3516v16.842h-6.875v-17.354c0-3.545 0.90484-6.3612 2.7148-8.4492 1.868-2.082 4.3184-3.1523 7.3594-3.1523z" fill="currentColor"/></svg>
